<svg xmlns="http://www.w3.org/2000/svg" xmlns:xlink="http://www.w3.org/1999/xlink" fill="none" version="1.1" width="12.6572265625" height="19.8134765625" viewBox="0 0 12.6572265625 19.8134765625"><g><path d="M2.7011159375,1.30225337109375C2.0018229375,0.66488937109375,0.8815269375,1.24348837109375,1.0177383375,2.1798003710937497Q1.7881229374999998,7.47543037109375,1.7881229374999998,9.90668037109375Q1.7881229374999998,12.33793037109375,1.0177383375,17.63363037109375C0.8815289374999999,18.56993037109375,2.0018179375000003,19.14853037109375,2.7011059375,18.51123037109375L11.3307359375,10.64580037109375C11.7659359375,10.24917037109375,11.7659359375,9.56428037109375,11.3307359375,9.16765037109375L2.7011159375,1.30225337109375Z" fill="#0B0C1D" fill-opacity="0.44999998807907104"/><path d="M2.0274859375,2.04133037109375Q2.0179759375,2.0326563710937497,2.0070259375,2.03834037109375Q2.0076359375,2.03803037109375,2.0073259375,2.03584037109375Q2.7881259375000003,7.40307037109375,2.7881259375000003,9.90668037109375Q2.7881259375000003,12.41033037109375,2.0073259375,17.77753037109375Q2.0076359375,17.77543037109375,2.0070459375,17.77513037109375Q2.0179859374999998,17.78083037109375,2.0274859375,17.77213037109375L10.6570959375,9.90673037109375Q10.6570959375,9.90673037109375,10.6570959375,9.90673037109375L2.0274859375,2.04133037109375L2.0274859375,2.04133037109375ZM3.3747359375,0.56317937109375L12.0043359375,8.42858037109375Q12.6571359375,9.023530371093749,12.6571359375,9.90673037109375Q12.6571359375,10.78993037109375,12.0043359375,11.38483037109375L3.3747259375,19.25033037109375Q2.3341559375000003,20.19873037109375,1.0851734375,19.54993037109375Q-0.17625406249999997,18.89483037109375,0.028154937499999977,17.48963037109375Q0.7881229375000001,12.26553037109375,0.7881229375000001,9.90668037109375Q0.7881229375000001,7.54778037109375,0.028154937499999977,2.32376037109375Q-0.17626406250000004,0.91861937109375,1.0851991375,0.26345337109375Q2.3341759375,-0.38522962890625,3.3747359375,0.56317937109375L3.3747359375,0.56317937109375Z" fill="#FFFFFF" fill-opacity="0.5"/></g></svg>