<svg xmlns="http://www.w3.org/2000/svg" xmlns:xlink="http://www.w3.org/1999/xlink" fill="none" version="1.1" width="17.878177642822266" height="15.477219581604004" viewBox="0 0 17.878177642822266 15.477219581604004"><g><path d="M17.292,7.25338L2.01437,7.25338L9.02228,1.02428C9.26426,0.809207,9.28606,0.438718,9.07097,0.196742C8.8559,-0.0451736,8.48547,-0.0670387,8.24347,0.148055L0.196747,7.30053C0.0715914,7.41173,0,7.5712,0,7.73863C0,7.90605,0.0715914,8.06553,0.196747,8.17673L8.24349,15.3292C8.35515,15.4285,8.49418,15.4772,8.63267,15.4772C8.79428,15.4772,8.95521,15.4107,9.07099,15.2805C9.28606,15.0385,9.26428,14.668,9.0223,14.453L2.2492,8.43258L17.292,8.43258C17.6157,8.43258,17.8782,8.1667,17.8782,7.84298C17.8782,7.51926,17.6157,7.25338,17.292,7.25338Z" fill="#FFFFFF" fill-opacity="1"/></g></svg>