<svg xmlns="http://www.w3.org/2000/svg" xmlns:xlink="http://www.w3.org/1999/xlink" fill="none" version="1.1" width="261" height="84" viewBox="0 0 261 84"><defs><linearGradient x1="0.8534080386161804" y1="-0.1614481657743454" x2="0.20390325784683228" y2="1.1227983236312866" id="master_svg0_12_56301"><stop offset="8.525559306144714%" stop-color="#18163D" stop-opacity="0.5699999928474426"/><stop offset="98.72322678565979%" stop-color="#73238E" stop-opacity="0.6899999976158142"/></linearGradient><linearGradient x1="1" y1="0.5" x2="0" y2="0.5" id="master_svg1_12_7316"><stop offset="0%" stop-color="#4E384E" stop-opacity="0.4699999988079071"/><stop offset="49.888062477111816%" stop-color="#4D365A" stop-opacity="0.8399999737739563"/><stop offset="100%" stop-color="#4E384E" stop-opacity="0.15000000596046448"/></linearGradient></defs><g><path d="M0,74C0,79.5229,4.47715,84,10,84L208.136,84C211.757,84,215.095,82.0427,216.863,78.8829L252.673,14.8829C256.402,8.21711,251.584,0,243.946,0L10,0C4.47715,0,0,4.47715,0,10L0,74Z" fill="url(#master_svg0_12_56301)" fill-opacity="1"/><path d="M0,74C0,79.5229,4.47715,84,10,84L208.136,84C211.757,84,215.095,82.0427,216.863,78.8829L252.673,14.8829C256.402,8.21711,251.584,0,243.946,0L10,0C4.47715,0,0,4.47715,0,10L0,74ZM1,74Q1,77.7279,3.63604,80.364Q6.27208,83,10,83L208.136,83Q210.58,83,212.689,81.7637Q214.797,80.5274,215.99,78.3946L251.8,14.3946Q254.317,9.89519,251.71,5.4476Q249.102,1,243.946,1L10,1Q6.27208,1,3.63604,3.63604Q0.999999,6.27208,0.999999,10L1,74Z" fill-rule="evenodd" fill="url(#master_svg1_12_7316)" fill-opacity="1"/></g></svg>