<svg xmlns="http://www.w3.org/2000/svg" xmlns:xlink="http://www.w3.org/1999/xlink" fill="none" version="1.1" width="31" height="25" viewBox="0 0 31 25"><defs><clipPath id="master_svg0_61_1037"><rect x="0" y="0" width="31" height="25" rx="0"/></clipPath></defs><g clip-path="url(#master_svg0_61_1037)"><g><path d="M25.4054125,3.40951171875C25.3975125,3.39404171875,25.3844125,3.3819317187499998,25.3684125,3.37533171875C23.5218125,2.52125671875,21.5731125,1.91223771875,19.5711125,1.56351077875C19.5338125,1.55651896875,19.4962125,1.57443091875,19.4779125,1.60794431875C19.2126125,2.0934377187499997,18.9717125,2.59212171875,18.7562125,3.10208171875C16.598212500000002,2.77185171875,14.4030125,2.77185171875,12.2450125,3.10208171875C12.0281125,2.59082171875,11.7833125,2.09201771875,11.5119125,1.60794451875C11.4928125,1.57523331875,11.4558125,1.55760674875,11.4187125,1.56351095875C9.4164625,1.91150471875,7.4676525,2.52056871875,5.6213025,3.3753717187500003C5.6054925,3.38213171875,5.5921525,3.39366171875,5.5831325,3.4083817187500003C1.8907865,8.966881718749999,0.8793145,14.38871171875,1.3755085,19.74341171875C1.3783285,19.76991171875,1.3917005,19.79411171875,1.4125635,19.81051171875C3.5625825,21.41531171875,5.9674025,22.64021171875,8.5244025,23.43301171875C8.5612825,23.44421171875,8.6011425,23.43101171875,8.6243225,23.40001171875C9.173512500000001,22.64671171875,9.6601325,21.84911171875,10.0792425,21.01521171875C10.1036625,20.96661171875,10.0805625,20.90751171875,10.0298825,20.88881171875C9.2625225,20.59281171875,8.5196225,20.23601171875,7.8081525,19.82181171875C7.7521625,19.78861171875,7.7474725,19.70871171875,7.7991925,19.66911171875C7.9489025,19.55641171875,8.0960125,19.44021171875,8.2404125,19.32061171875C8.2662425,19.29921171875,8.3019025,19.29431171875,8.332442499999999,19.30811171875C12.9935125,21.45251171875,18.0398125,21.45251171875,22.6457125,19.30811171875C22.6763125,19.29341171875,22.7126125,19.29791171875,22.7389125,19.31951171875C22.8835125,19.43971171875,23.0310125,19.55631171875,23.1812125,19.66911171875C23.2332125,19.70831171875,23.2291125,19.78821171875,23.1734125,19.82181171875C22.4635125,20.23951171875,21.7200125,20.59611171875,20.9506125,20.88771171875C20.9000125,20.90711171875,20.8773125,20.96661171875,20.9022125,21.01521171875C21.3283125,21.84441171875,21.8142125,22.64111171875,22.3560125,23.39871171875C22.3785125,23.43061171875,22.4187125,23.44431171875,22.4559125,23.43291171875C25.0175125,22.64281171875,27.4265125,21.41771171875,29.5792125,19.81051171875C29.6004125,19.79491171875,29.6139125,19.77091171875,29.6163125,19.74451171875C30.2103125,13.55391171875,28.6217125,8.17655171875,25.4054125,3.40951171875ZM10.7753325,16.48291171875C9.3720025,16.48291171875,8.215702499999999,15.18471171875,8.215702499999999,13.59041171875C8.215702499999999,11.99611171875,9.3495825,10.69779171875,10.7753325,10.69779171875C12.2122125,10.69779171875,13.3573125,12.00731171875,13.3349125,13.59031171875C13.3349125,15.18471171875,12.2010125,16.48291171875,10.7753325,16.48291171875ZM20.2390125,16.48291171875C18.8358125,16.48291171875,17.6795125,15.18471171875,17.6795125,13.59041171875C17.6795125,11.99611171875,18.8133125,10.69779171875,20.2390125,10.69779171875C21.6760125,10.69779171875,22.8211125,12.00731171875,22.7987125,13.59031171875C22.7987125,15.18471171875,21.6760125,16.48291171875,20.2390125,16.48291171875Z" fill="#FFFFFF" fill-opacity="1"/></g></g></svg>