<svg xmlns="http://www.w3.org/2000/svg" xmlns:xlink="http://www.w3.org/1999/xlink" fill="none" version="1.1" width="627" height="717" viewBox="0 0 627 717"><defs><filter id="master_svg0_61_1052" filterUnits="objectBoundingBox" color-interpolation-filters="sRGB" x="0" y="0" width="627" height="717"><feFlood flood-opacity="0" result="BackgroundImageFix"/><feBlend mode="normal" in="SourceGraphic" in2="BackgroundImageFix" result="shape"/><feGaussianBlur in="BackgroundImage" stdDeviation="5"/><feComposite in2="SourceAlpha" operator="in" result="effect1_foregroundBlur"/><feBlend mode="normal" in="SourceGraphic" in2="effect1_foregroundBlur" result="shape"/></filter><linearGradient x1="0.5" y1="0" x2="0.5" y2="1" id="master_svg1_12_41898"><stop offset="0%" stop-color="#AEA9E9" stop-opacity="0.3700000047683716"/><stop offset="61.641258001327515%" stop-color="#AEA9E9" stop-opacity="0.44999998807907104"/><stop offset="100%" stop-color="#AEA9E9" stop-opacity="0"/></linearGradient><mask id="master_svg2_61_1059" style="mask-type:alpha" maskUnits="userSpaceOnUse"><g transform="matrix(-1,0,0,1,1254,0)"><path d="M627,592.5L728.466,592.5C751.662,592.5,770.466,611.304,770.466,634.5L770.466,717L1212,717C1235.196,717,1254,698.196,1254,675L1254,42C1254,18.804,1235.196,0,1212,0L669,0C645.804,0,627,18.804,627,42L627,592.5Z" fill="#FFFFFF" fill-opacity="0.5400000214576721"/></g></mask><filter id="master_svg3_61_1060" filterUnits="objectBoundingBox" color-interpolation-filters="sRGB" x="-142" y="-142" width="862" height="838"><feFlood flood-opacity="0" result="BackgroundImageFix"/><feBlend mode="normal" in="SourceGraphic" in2="BackgroundImageFix" result="shape"/><feGaussianBlur stdDeviation="35.5" result="effect1_foregroundBlur"/></filter><linearGradient x1="0.07367435097694397" y1="0.06588806211948395" x2="0.8507107496261597" y2="1" id="master_svg4_12_44141"><stop offset="0%" stop-color="#852297" stop-opacity="1"/><stop offset="100%" stop-color="#283D92" stop-opacity="0"/></linearGradient></defs><g><g filter="url(#master_svg0_61_1052)"><path d="M0,558C0,569.046,8.95431,578,20,578L115.281,578C138.477,578,157.281,596.804,157.281,620L157.281,697C157.281,708.046,166.236,717,177.281,717L585,717C608.196,717,627,698.196,627,675L627,131C627,119.954,618.046,111,607,111L505.874,111C482.678,111,463.874,92.196,463.874,69L463.874,20C463.874,8.95431,454.919,0,443.874,0L42,0C18.804,0,0,18.804,0,42L0,558Z" fill="#15131C" fill-opacity="0.5400000214576721"/><path d="M0,558C0,569.046,8.95431,578,20,578L115.281,578C138.477,578,157.281,596.804,157.281,620L157.281,697C157.281,708.046,166.236,717,177.281,717L585,717C608.196,717,627,698.196,627,675L627,131C627,119.954,618.046,111,607,111L505.874,111C482.678,111,463.874,92.196,463.874,69L463.874,20C463.874,8.95431,454.919,0,443.874,0L42,0C18.804,0,0,18.804,0,42L0,558ZM1,558Q1,565.87,6.56497,571.435Q12.1299,577,20,577L115.281,577Q124.029,577,132.019,580.38Q139.736,583.644,145.687,589.594Q151.638,595.546,154.902,603.262Q158.281,611.253,158.281,620L158.281,697Q158.281,704.87,163.846,710.435Q169.411,716,177.281,716L585,716Q593.342,716,600.959,712.779Q608.316,709.666,613.991,703.991Q619.666,698.317,622.778,690.959Q626,683.342,626,675L626,131Q626,123.13,620.435,117.565Q614.87,112,607,112L505.874,112Q497.126,112,489.136,108.62Q481.419,105.357,475.468,99.4056Q469.517,93.4551,466.253,85.7379Q462.874,77.748,462.874,69L462.874,20Q462.874,12.1299,457.309,6.56497Q451.744,1,443.874,0.999999L42,1Q33.6579,1,26.0413,4.22157Q18.6837,7.33356,13.0086,13.0086Q7.33356,18.6837,4.22157,26.0413Q1,33.6579,1,42L1,558Z" fill-rule="evenodd" fill="url(#master_svg1_12_41898)" fill-opacity="1"/></g><g mask="url(#master_svg2_61_1059)"><g filter="url(#master_svg3_61_1060)"><path d="M-80,-72L336,482L498,267L28.5,-72L-80,-72Z" fill="url(#master_svg4_12_44141)" fill-opacity="0.5"/></g></g></g></svg>