<svg xmlns="http://www.w3.org/2000/svg" xmlns:xlink="http://www.w3.org/1999/xlink" fill="none" version="1.1" width="24.884544372558594" height="24.870813369750977" viewBox="0 0 24.884544372558594 24.870813369750977"><defs><clipPath id="master_svg0_134_4282"><rect x="0" y="0" width="24.884544372558594" height="24.870813369750977" rx="0"/></clipPath></defs><g clip-path="url(#master_svg0_134_4282)"><g><path d="M22.21285,10.4881098046875C22.09425,9.8618898046875,21.70995,9.4569498046875,21.21775,9.4569498046875L21.13245,9.4569498046875C19.80235,9.4569498046875,18.72055,8.3757498046875,18.72055,7.0460598046875C18.72055,6.6259998046875,18.92225,6.1470398046875,18.93005,6.128009804687499C19.17545,5.5761198046875,18.98715,4.8998198046875,18.49065,4.5527098046875L15.99495,3.1638468046875L15.95825,3.1459028046875C15.45895,2.9294990046875,14.77555,3.0680103046875,14.40325,3.4556578046875C14.13385,3.7333758046875,13.20505,4.5252498046875,12.49625,4.5252498046875C11.77834,4.5252498046875,10.84747,3.7174938046875,10.57668,3.4345068046875C10.20504,3.0440261046875,9.52871,2.8974378046875,9.023769999999999,3.1134680046875L6.43915,4.5287798046875L6.40036,4.5534598046875C5.9038699999999995,4.8991798046875,5.71488,5.5754498046875,5.9589,6.1252198046875C5.9673300000000005,6.1453298046875,6.16976,6.6203898046875,6.16976,7.0460898046875C6.16976,8.3757698046875,5.08794,9.4569698046875,3.75792,9.4569698046875L3.65708,9.4569698046875C3.180339,9.4569698046875,2.795984,9.8618898046875,2.677514,10.4881398046875C2.668686,10.532199804687501,2.46875,11.5919298046875,2.46875,12.4416098046875C2.46875,13.2901498046875,2.668686,14.3495498046875,2.677514,14.3932498046875C2.795984,15.0198498046875,3.180339,15.4251498046875,3.67257,15.4251498046875L3.75792,15.4251498046875C5.08794,15.4251498046875,6.16976,16.5064498046875,6.16976,17.8356498046875C6.16976,18.258549804687497,5.96736,18.7357498046875,5.9596,18.7540498046875C5.7149,19.3070498046875,5.9025,19.9822498046875,6.39755,20.3276498046875L8.846070000000001,21.7006498046875L8.88344,21.7175498046875C9.389800000000001,21.9403498046875,10.07455,21.7951498046875,10.44481,21.3905498046875C10.78682,21.0211498046875,11.71351,20.2543498046875,12.39401,20.2543498046875C13.13165,20.2543498046875,14.08165,21.1128498046875,14.35525,21.4144498046875C14.60775,21.6907498046875,14.99555,21.8571498046875,15.39265,21.8571498046875C15.57815,21.8571498046875,15.75365,21.8204498046875,15.91445,21.7514498046875L18.45325,20.3530498046875L18.49065,20.3290498046875C18.98715,19.9822498046875,19.17615,19.3070498046875,18.93145,18.7569498046875C18.92295,18.7364498046875,18.72055,18.261349804687498,18.72055,17.835749804687502C18.72055,16.5064498046875,19.80235,15.4252498046875,21.13245,15.4252498046875L21.23195,15.4252498046875C21.70925,15.4252498046875,22.09435,15.0199498046875,22.21285,14.3932498046875C22.22135,14.3495498046875,22.42155,13.2902498046875,22.42155,12.4416398046875C22.42155,11.5918998046875,22.22135,10.5321798046875,22.21285,10.4881098046875ZM20.97445,12.4415798046875C20.97445,12.9906298046875,20.86515,13.6961498046875,20.81505,13.9908498046875C18.81995,14.1543498046875,17.27345,15.8205498046875,17.27345,17.8356498046875C17.27345,18.404449804687502,17.454050000000002,18.9492498046875,17.549950000000003,19.1998498046875L15.38415,20.3952498046875C15.27765,20.2839498046875,14.96315,19.9667498046875,14.53505,19.6481498046875C13.78335,19.0913498046875,13.06255,18.806849804687502,12.39399,18.806849804687502C11.73109,18.806849804687502,11.01602,19.0842498046875,10.26778,19.6340498046875C9.84182,19.9441498046875,9.53154,20.2528498046875,9.422920000000001,20.3670498046875L7.3397,19.2012498046875C7.44126,18.938049804687502,7.61688,18.400249804687498,7.61688,17.8356498046875C7.61688,15.8205498046875,6.07033,14.1543498046875,4.07597,13.9908498046875C4.02519,13.6961498046875,3.91587,12.9906598046875,3.91587,12.4415798046875C3.91587,11.8914398046875,4.02519,11.1855598046875,4.07597,10.8909398046875C6.07033,10.7277798046875,7.61688,9.0611998046875,7.61688,7.0460798046875C7.61688,6.4804598046875,7.43634,5.9338698046875,7.34042,5.6836398046875L9.55977,4.4646298046875C9.65638,4.5612098046875005,9.97302,4.8709698046875,10.40601,5.178979804687501C11.14369,5.7051398046875,11.84613,5.971569804687499,12.49635,5.971569804687499C13.14015,5.971569804687499,13.83765,5.710089804687501,14.57035,5.1941398046875005C15.00685,4.8875398046875,15.32285,4.5820098046875,15.41445,4.4956698046875L17.55055,5.6815298046875C17.45395,5.930339804687501,17.27345,6.4751598046875,17.27345,7.0460798046875C17.27345,9.061189804687501,18.81995,10.7277798046875,20.81505,10.8909398046875C20.86515,11.1862298046875,20.97445,11.8949698046875,20.97445,12.4415798046875Z" fill="#FFFFFF" fill-opacity="1"/></g><g><path d="M12.38139125,8.880615234375C10.42441125,8.880615234375,8.83203125,10.472135234375,8.83203125,12.428045234375C8.83203125,14.384275234375,10.42443125,15.975125234375,12.38139125,15.975125234375C14.338381250000001,15.975125234375,15.930781249999999,14.384275234375,15.930781249999999,12.428045234375C15.930781249999999,10.472135234375,14.338381250000001,8.880615234375,12.38139125,8.880615234375ZM14.48368125,12.428045234375C14.48368125,13.586415234375,13.540801250000001,14.528755234375,12.38139125,14.528755234375C11.22201125,14.528755234375,10.27983125,13.586415234375,10.27983125,12.428045234375C10.27983125,11.270345234375,11.22201125,10.327635234375,12.38139125,10.327635234375C13.540801250000001,10.327665234375,14.48368125,11.270345234375,14.48368125,12.428045234375Z" fill="#FFFFFF" fill-opacity="1"/></g></g></svg>