<svg xmlns="http://www.w3.org/2000/svg" xmlns:xlink="http://www.w3.org/1999/xlink" fill="none" version="1.1" width="31" height="31" viewBox="0 0 31 31"><defs><linearGradient x1="0.777006983757019" y1="-0.0851166844367981" x2="0.32650861144065857" y2="1.0918726921081543" id="master_svg0_112_03639"><stop offset="9.285714477300644%" stop-color="#271153" stop-opacity="1"/><stop offset="97.85714149475098%" stop-color="#431257" stop-opacity="1"/></linearGradient><clipPath id="master_svg1_134_4260"><rect x="8" y="23" width="16" height="16" rx="0"/></clipPath></defs><g><g><ellipse cx="15.5" cy="15.5" rx="14.5" ry="14.5" fill="url(#master_svg0_112_03639)" fill-opacity="1"/><ellipse cx="15.5" cy="15.5" rx="15" ry="15" fill-opacity="0" stroke-opacity="1" stroke="#3E2E65" fill="none" stroke-width="1"/></g><g><g transform="matrix(0,-1,1,0,-15,31)" clip-path="url(#master_svg1_134_4260)"></g><g><path d="M9.396297,13.854700000000001L13.45839,13.854700000000001C13.706050000000001,13.854700000000001,13.854700000000001,13.65655,13.854700000000001,13.45839C13.854700000000001,13.21067,13.65655,13.062090000000001,13.45839,13.062090000000001L10.337530000000001,13.062090000000001C11.27872,11.13012,13.21069,9.792593,15.43989,9.792593C18.26353,9.792593,20.6413,11.92272,21.037599999999998,14.647269999999999L21.8798,14.647269999999999C21.4835,11.47686,18.75891,9.0000156164,15.43989,9.0000156164C13.012550000000001,9.0000156164,10.93198,10.33755,9.792609,12.31903L9.792609,9.396297C9.792609,9.198156,9.644031,9,9.396297,9C9.198156,9,9,9.198156,9,9.396297L9,13.45839Q9.0000156164,13.854700000000001,9.396297,13.854700000000001ZM21.533,17.074640000000002L17.470950000000002,17.074640000000002C17.22323,17.074640000000002,17.07466,17.2728,17.07466,17.470950000000002C17.07466,17.71858,17.27281,17.867240000000002,17.470950000000002,17.867240000000002L20.5422,17.867240000000002C19.6506,19.7992,17.66909,21.0872,15.43989,21.0872C12.61625,21.0872,10.23847,18.95706,9.842172,16.2325L9.0495937,16.2325C9.445891,19.4525,12.17039,21.929299999999998,15.43989,21.929299999999998C17.86723,21.929299999999998,19.9973,20.5918,21.0872,18.61027L21.0872,21.533C21.0872,21.7807,21.2853,21.929299999999998,21.4835,21.929299999999998C21.7312,21.929299999999998,21.8798,21.731099999999998,21.8798,21.533L21.8798,17.47097Q21.929299999999998,17.074640000000002,21.533,17.074640000000002Z" fill="#FFFFFF" fill-opacity="1"/></g></g></g></svg>